<?xml version="1.0" encoding="utf-8"?>
<!-- Generator: Adobe Illustrator 21.1.0, SVG Export Plug-In . SVG Version: 6.00 Build 0)  -->
<svg version="1.1" id="Layer_1" xmlns="http://www.w3.org/2000/svg" xmlns:xlink="http://www.w3.org/1999/xlink" x="0px" y="0px"
	 viewBox="0 0 78 78" style="enable-background:new 0 0 78 78;" xml:space="preserve">
<style type="text/css">
	.st0{fill-rule:evenodd;clip-rule:evenodd;fill:#4CB024;}
</style>
<g>
	<path class="st0" d="M10.4,39c1.7,0,3.4,0,5.2,0c0.1-0.9,0.1-1.8,0.2-2.6c1.2-9.9,6.4-17.2,15.5-21.2c15.2-6.7,32,2.3,35.6,17.9
		c3.3,14.5-5.8,28.5-20.5,31.3c-8.8,1.7-16.6-0.8-23.1-7.1c-0.9-0.9-1.1-2.1-0.5-3.2c0.6-1,1.7-1.5,2.9-1.2c0.5,0.1,1,0.5,1.4,0.8
		c3,2.9,6.6,4.8,10.7,5.6c11,2.1,21.8-5.1,24.1-16c2.3-11-4.3-21.7-15.2-24.6c-11.7-3-23.6,4.7-25.6,16.6c-0.2,1.1-0.3,2.3-0.4,3.5
		c1.8,0,3.5,0,5.3,0c-2.6,3.5-5.2,6.9-7.8,10.4c-0.2-0.2-0.3-0.4-0.5-0.6c-2.3-3.1-4.6-6.2-7-9.3c-0.1-0.1-0.2-0.3-0.4-0.4
		C10.4,39.1,10.4,39.1,10.4,39z"/>
	<path class="st0" d="M41.6,39c2.5,0,5,0,7.5,0c0.3,0,0.6,0,0.8,0.1c1.3,0.3,2.2,1.5,2,2.8c-0.1,1.3-1.2,2.3-2.7,2.3
		c-2.5,0-4.9,0-7.4,0c-0.9,0-1.8,0-2.7,0c-1.7,0-2.8-1.1-2.8-2.8c0-5.1,0-10.1,0-15.2c0-1.6,1.1-2.8,2.6-2.8c1.5,0,2.6,1.2,2.6,2.8
		c0,3.9,0,7.7,0,11.6C41.6,38.2,41.6,38.5,41.6,39z"/>
</g>
</svg>
