<?xml version="1.0" encoding="utf-8"?>
<!-- Generator: Adobe Illustrator 21.1.0, SVG Export Plug-In . SVG Version: 6.00 Build 0)  -->
<svg version="1.1" id="Layer_1" xmlns="http://www.w3.org/2000/svg" xmlns:xlink="http://www.w3.org/1999/xlink" x="0px" y="0px"
	 viewBox="0 0 54 54" style="enable-background:new 0 0 54 54;" xml:space="preserve">
<style type="text/css">
	.st0{fill:#FFFFFF;}
</style>
<path class="st0" d="M27,1.5C12.9,1.5,1.5,12.9,1.5,27S12.9,52.5,27,52.5S52.5,41.1,52.5,27S41.1,1.5,27,1.5z M28.7,45
	c-0.1,0.3-0.3,0.5-0.5,0.8c-0.2,0.2-0.5,0.4-0.8,0.5c-0.3,0.1-0.6,0.2-0.9,0.2c-0.3,0-0.6-0.1-0.9-0.2c-0.3-0.1-0.5-0.3-0.7-0.5
	c-0.2-0.2-0.4-0.5-0.5-0.8c-0.1-0.3-0.2-0.6-0.2-0.9c0-0.3,0.1-0.7,0.2-1c0.1-0.3,0.3-0.5,0.5-0.7c0.2-0.2,0.5-0.4,0.8-0.5
	c0.3-0.1,0.6-0.2,0.9-0.2c0.3,0,0.6,0.1,0.9,0.2c0.3,0.1,0.5,0.3,0.8,0.5c0.2,0.2,0.4,0.5,0.5,0.8c0.1,0.3,0.2,0.6,0.2,1
	C28.9,44.4,28.8,44.7,28.7,45z M35.7,20c-0.3,0.8-0.6,1.5-1,2.2c-0.4,0.7-0.9,1.3-1.4,1.9c-0.5,0.6-1.1,1.1-1.6,1.7
	c-0.7,0.7-1.3,1.3-1.9,1.8c-0.5,0.5-1,1.1-1.4,1.6c-0.4,0.5-0.6,1-0.8,1.5c-0.2,0.5-0.3,1.1-0.3,1.7c0,0.8,0.1,1.5,0.2,2.1
	c0.2,0.6,0.3,1.1,0.5,1.6h-3c-0.2-0.4-0.3-1-0.4-1.7c-0.1-0.7-0.2-1.3-0.2-2c0-0.8,0.1-1.6,0.4-2.3c0.3-0.7,0.6-1.3,1-2
	c0.4-0.6,0.9-1.2,1.5-1.8c0.6-0.6,1.2-1.1,1.8-1.7c0.5-0.5,1-0.9,1.4-1.4c0.5-0.5,0.9-1,1.2-1.5c0.3-0.5,0.6-1.1,0.8-1.8
	c0.2-0.6,0.3-1.3,0.3-2c0-0.9-0.2-1.6-0.5-2.3c-0.3-0.7-0.7-1.2-1.3-1.7c-0.5-0.5-1.2-0.8-1.9-1c-0.7-0.2-1.5-0.4-2.4-0.4
	c-1.5,0-2.9,0.3-4.1,0.8c-1.3,0.5-2.4,1.3-3.5,2.4v-3.5c1.2-0.8,2.5-1.5,3.8-1.9c1.3-0.4,2.7-0.6,4.2-0.6c1.2,0,2.4,0.2,3.5,0.5
	c1.1,0.3,2,0.8,2.8,1.5c0.8,0.7,1.4,1.5,1.9,2.5c0.5,1,0.7,2.1,0.7,3.4C36.1,18.4,35.9,19.3,35.7,20z"/>
</svg>
