<?xml version="1.0" encoding="utf-8"?>
<!-- Generator: Adobe Illustrator 21.1.0, SVG Export Plug-In . SVG Version: 6.00 Build 0)  -->
<svg version="1.1" id="Layer_1" xmlns="http://www.w3.org/2000/svg" xmlns:xlink="http://www.w3.org/1999/xlink" x="0px" y="0px"
	 viewBox="0 0 78 78" style="enable-background:new 0 0 78 78;" xml:space="preserve">
<style type="text/css">
	.st0{fill-rule:evenodd;clip-rule:evenodd;fill:#FFFFFF;}
	.st1{fill:#FFFFFF;}
</style>
<g>
	<g>
		<path class="st0" d="M52.2,62.2V47h-4v15.2c0,0.2-0.1,0.8-0.3,0.8H9c-0.2,0,0.2-0.6,0.2-0.8V16c0-0.2-0.4,0-0.2,0h38.8
			c0.2,0,0.3-0.2,0.3,0v15h4V16c0-2-2.3-4-4.3-4H9c-2,0-3.8,2-3.8,4v46.2c0,2,1.8,3.8,3.8,3.8h38.8C49.9,66,52.2,64.3,52.2,62.2z"/>
		<path class="st1" d="M47.8,67H9c-2.6,0-4.8-2.2-4.8-4.8V16c0-2.6,2.3-5,4.8-5h38.8c2.6,0,5.3,2.5,5.3,5v16h-6V17h-37v45h37l0-16h6
			v16.2C53.2,64.9,50.3,67,47.8,67z M9,13c-1.4,0-2.8,1.5-2.8,3v46.2C6.2,63.7,7.5,65,9,65h38.8c1.5,0,3.3-1.3,3.3-2.8V48h-2v14.2
			c0,0.6-0.3,1.8-1.3,1.8H8.4l-0.3-0.5c-0.3-0.5-0.1-1,0-1.3c0,0,0-0.1,0-0.1V17H8l-0.1-1c0-0.6,0.5-1,1.1-1h0.3L9.5,15h38.2
			c0.4-0.1,0.7-0.1,1,0.1l0.4,0.3l0,0.6v14h2V16c0-1.4-1.8-3-3.3-3H9z"/>
	</g>
	<g>
		<path class="st0" d="M57.8,27.7c-0.1,0.7,0.2,1.3,0.6,1.8c2.8,2.8,5.6,5.4,8.4,8.4H21.7c-0.9,0-1.7,0.6-1.7,1.5
			c0,0.9,0.7,1.5,1.7,1.5h45.4c-2.9,3-5.8,5.9-8.7,8.8c-0.1,0.1-0.3,0.3-0.4,0.4c-0.7,1-0.3,2.3,0.8,2.7c0.1,0,0.2,0.1,0.3,0.1
			c0.2,0,0.4,0,0.6,0c0.4,0,0.7-0.3,1-0.5c3.9-3.9,7.8-7.7,11.6-11.6c0.2-0.2,0.4-0.5,0.4-0.8c0.2-0.7-0.1-1.3-0.6-1.8
			c-3.8-3.8-7.5-7.5-11.2-11.2c-0.1-0.1-0.2-0.2-0.4-0.3C59.5,25.9,58,26.5,57.8,27.7z"/>
		<path class="st1" d="M59.7,54h-0.6c-0.2,0-0.4-0.1-0.5-0.1c-0.9-0.3-1.5-1-1.8-1.8c-0.3-0.8-0.1-1.7,0.5-2.4
			c0.2-0.2,0.3-0.4,0.5-0.5l0.9-0.9c2-2,4.1-4.1,6.1-6.2h-43c-1.5,0-2.7-1.1-2.7-2.5s1.2-2.5,2.7-2.5h42.8c-1.5-1.6-3.1-3.1-4.6-4.6
			c-0.7-0.7-1.4-1.4-2.2-2.1c-0.7-0.8-1.1-1.7-0.9-2.7l0,0c0.2-0.9,0.8-1.7,1.7-2.1c0.9-0.4,1.9-0.2,2.7,0.3
			c0.2,0.1,0.3,0.3,0.5,0.5l1.8,1.8c3.1,3.1,6.2,6.2,9.4,9.4c1.1,1,1.1,2.1,0.9,2.8c-0.1,0.5-0.4,0.9-0.7,1.3c-2.3,2.4-4.7,4.7-7,7
			c-1.5,1.5-3.1,3.1-4.6,4.6C61.2,53.4,60.6,54,59.7,54z M59.2,52h0.5c0,0,0.1,0,0.3-0.3c1.5-1.5,3.1-3.1,4.6-4.6
			c2.3-2.3,4.7-4.7,7-7c0.1-0.1,0.1-0.2,0.2-0.4c0-0.1,0.1-0.4-0.4-0.8c-3.1-3.1-6.3-6.3-9.4-9.4l-1.9-1.9c-0.1-0.1-0.2-0.2-0.2-0.2
			c-0.3-0.2-0.6-0.2-0.7-0.1c-0.1,0-0.4,0.2-0.4,0.6c-0.1,0.4,0.2,0.7,0.4,1c0.7,0.7,1.4,1.4,2.1,2.1c2,2,4.1,4.1,6.2,6.3l1.6,1.7
			H21.7c-0.2,0-0.7,0-0.7,0.5s0.5,0.5,0.7,0.5h47.8l-1.7,1.7c-2.6,2.7-5.3,5.3-7.8,7.9l-0.9,0.9c-0.1,0.1-0.2,0.2-0.2,0.3
			c-0.3,0.3-0.2,0.6-0.2,0.7C58.7,51.7,58.9,51.9,59.2,52L59.2,52z"/>
	</g>
</g>
</svg>
