<?xml version="1.0" encoding="utf-8"?>
<!-- Generator: Adobe Illustrator 21.1.0, SVG Export Plug-In . SVG Version: 6.00 Build 0)  -->
<svg version="1.1" id="Layer_1" xmlns="http://www.w3.org/2000/svg" xmlns:xlink="http://www.w3.org/1999/xlink" x="0px" y="0px"
	 viewBox="0 0 78 78" style="enable-background:new 0 0 78 78;" xml:space="preserve">
<style type="text/css">
	.st0{fill-rule:evenodd;clip-rule:evenodd;fill:#FFFFFF;}
</style>
<g>
	<path class="st0" d="M37.6,63c-5.8-0.2-11.4-1.3-16.9-3.3c-1.3-0.5-1.6-1.2-1.8-2.6c-0.9-5.3,1.6-8.2,6.3-9.9
		c2.2-0.8,4.3-1.8,6.3-3c3.4-2,4-5.1,2.1-8.6c-0.9-1.7-1.7-3.4-2.6-5.2c-0.2-0.4-0.3-0.8-0.3-1.3c0.1-2.7,0-5.5,0.4-8.2
		c0.5-3.9,3.7-6.2,8.3-6c4.2,0.1,7.1,2.7,7.4,6.6c0.2,2.4,0.2,4.9,0.3,7.3c0,0.6-0.1,1.2-0.3,1.7c-1,2-2,4-3.1,5.9
		c-1.2,2.2-0.6,5.3,1.7,7c1.5,1.1,3.3,1.9,5,2.7c2,1,4.1,2,6.1,3c1.8,0.9,2.6,2.4,2.5,4.5c-0.1,5.6,0,5.8-5.5,7.1
		c-5.2,1.2-8.9,1.9-15.8,2.2C37.8,62.8,37.7,63.2,37.6,63z"/>
	<path class="st0" d="M3.7,58.7c0.2-3.2,0.1-6.2,0.6-9.1c0.2-1.1,1.3-2.3,2.3-2.9c1.9-1.2,4.1-1.9,6.1-3c3.3-1.7,4.1-4,2.2-7.1
		c-2-3.4-2-7-1.7-10.6c0.2-3.2,2.9-4.9,6.5-4.6c3.2,0.3,5.3,2.7,5.2,5.9c-0.1,1.4,0.3,2.8,0,4.1c-0.4,1.7-0.9,3.5-1.9,5
		c-1.6,2.4-1.2,4.5,0.7,6.7c-1.8,1-3.6,2-5.4,3c-2.5,1.3-3.7,3.3-3.5,6.2c0.2,2.1,0,4.2,0,6.5C11.1,58.7,7.6,58.7,3.7,58.7z"/>
	<path class="st0" d="M74.3,58.7c-3.8,0-7.3,0-11.1,0c0-2.2-0.1-4.4,0-6.5c0.2-2.9-1.1-4.9-3.5-6.2c-1.7-0.9-3.4-1.9-5.5-3
		c3.6-3.2,0.9-6.2-0.4-9.2c-0.2-0.4-0.7-0.7-0.7-1.1c0.1-2.7,0-5.5,0.6-8.1c0.6-2.5,3.3-3.5,6.5-3.1c2.5,0.4,4.3,2,4.6,4.5
		c0.2,1.9,0.5,3.9,0.2,5.8c-0.3,1.7-1.3,3.3-2.1,4.9c-1.5,2.9-0.9,5.1,2,6.7c1.9,1.1,3.9,1.9,5.9,2.8c2.1,1,3.2,2.5,3.2,5
		C74,53.7,74.2,56.1,74.3,58.7z"/>
</g>
</svg>
