<?xml version="1.0" encoding="utf-8"?>
<!-- Generator: Adobe Illustrator 21.1.0, SVG Export Plug-In . SVG Version: 6.00 Build 0)  -->
<svg version="1.1" id="Layer_1" xmlns="http://www.w3.org/2000/svg" xmlns:xlink="http://www.w3.org/1999/xlink" x="0px" y="0px"
	 viewBox="0 0 96 96" style="enable-background:new 0 0 96 96;" xml:space="preserve">
<style type="text/css">
	.st0{fill:#4CB024;}
</style>
<g>
	<path class="st0" d="M86.5,63.1c-1,2.8-2.8,5-5.9,5.6c-0.8,0.1-1.6,0.1-2.5,0.2c0,1.6,0,3.2,0,4.8c0,1.9-0.8,3.2-2.3,3.7
		c-1.5,0.6-3.1,0.2-4.3-1.2c-1.8-2-3.6-4-5.4-6.1c-0.8-0.9-1.6-1.3-2.8-1.3c-7.2,0.1-14.3,0-21.5,0c-5.5,0-8.3-2.8-8.3-8.2
		c0-0.4,0-0.8,0-1.3c-1.5-0.3-2.6-0.3-3.7,1.1c-1.6,2.1-3.5,4-5.3,6c-1.3,1.5-2.9,2-4.4,1.4c-1.5-0.6-2.3-1.9-2.3-3.9
		c0-1.5,0-3.1,0-4.7c-0.9-0.1-1.6,0-2.4-0.2c-3.5-0.6-6-3.5-6.1-7.2c0-8.8,0-17.5,0-26.3c0-4.2,3.1-7.3,7.4-7.3
		c12.7,0,25.5,0,38.2,0c4.3,0,7.3,3.1,7.4,7.4c0,0.6,0,1.3,0,2.2c0.6,0,1.1,0,1.6,0c4.5,0,8.9,0.2,13.4,0c4.5-0.2,7.5,1.5,9,5.8
		C86.5,43.5,86.5,53.3,86.5,63.1z M22.8,61.2c1.7-1.9,3.2-3.4,4.6-5.1c1-1.3,2.2-1.7,3.8-1.7c7.8,0.1,15.6,0,23.4,0c2.2,0,3-0.8,3-3
		c0-8.5,0-16.9,0-25.4c0-2-0.9-2.9-3-2.9c-12.5,0-24.9,0-37.4,0c-2.1,0-2.9,0.9-2.9,2.9c0,8.5,0,16.9,0,25.4c0,2.1,0.9,3,3,3
		c1.8,0,3.6,0,5.4,0C22.8,56.7,22.8,58.8,22.8,61.2z M62.4,32.7c0,6.4,0,12.6,0,18.8c0,4.6-3,7.6-7.6,7.6c-4.9,0-9.8,0-14.7,0
		c-0.5,0-1.1,0-1.6,0c-0.4,3.4-0.1,4.9,4.1,4.9c7.5-0.2,14.9,0,22.4-0.1c1.5,0,2.6,0.4,3.6,1.6c1.4,1.8,2.9,3.3,4.7,5.3
		c0-2.5,0-4.7,0-6.9c2,0,3.9,0,5.7,0c1.8,0,2.7-0.9,2.7-2.7c0-1.5,0-3,0-4.5c0-7.1,0-14.1,0-21.2c0-1.8-0.8-2.8-2.4-2.9
		C73.8,32.7,68.2,32.7,62.4,32.7z"/>
</g>
</svg>
