<?xml version="1.0" encoding="utf-8"?>
<!-- Generator: Adobe Illustrator 21.1.0, SVG Export Plug-In . SVG Version: 6.00 Build 0)  -->
<svg version="1.1" id="Layer_1" xmlns="http://www.w3.org/2000/svg" xmlns:xlink="http://www.w3.org/1999/xlink" x="0px" y="0px"
	 viewBox="0 0 78 78" style="enable-background:new 0 0 78 78;" xml:space="preserve">
<style type="text/css">
	.st0{fill-rule:evenodd;clip-rule:evenodd;fill:#FFFFFF;}
</style>
<g>
	<path class="st0" d="M5.5,45.2c5,2,9.6,3.8,14.3,5.7c4.7,1.9,9.4,3.8,14.2,5.7c1,0.4,1.3,0.9,1.3,1.9c0,1.3,0.2,2.6,0.5,3.9
		c1.6,6.6,8.5,6.9,12.2,3.5c2.5-2.3,4-5.4,5.2-8.6c4.7-13,9.2-26,13.9-39c0.4-1.1,0.1-1.5-1-1.8c-10.5-2.1-21-4.2-31.5-6.3
		c-1.5-0.3-1.8,0.5-2.2,1.6c-3.7,10-7.3,20.1-11,30.1c-0.2,0.5-0.4,1.1-0.7,1.5c-0.7,1-1.6,1.5-2.8,0.9c-1.1-0.5-1.8-1.4-1.3-2.7
		c1.7-4.9,3.3-9.7,5.1-14.6C24,20.6,26.4,14,28.9,7.4c0.9-2.4,1.4-2.7,4-2.2c12,2.4,23.9,4.7,35.9,7.1c0.5,0.1,1.1,0.2,1.6,0.4
		c2.5,0.7,3,1.5,2.2,4c-2.5,7.7-5,15.5-7.8,23.1c-2.6,7.3-5.3,14.5-8.3,21.7c-1.1,2.6-2.8,5.2-4.6,7.3c-3.7,4.2-10.4,5.4-15.9,3
		c-8.1-3.5-16.2-7.2-24.2-10.9C7.1,58.7,4.6,54,5.1,48.4C5.2,47.4,5.4,46.4,5.5,45.2z"/>
	<path class="st0" d="M50.8,41.4c-0.5-0.1-1.1-0.2-1.7-0.4c-3.3-1.1-6.6-2.1-9.8-3.3c-0.8-0.3-1.6-1.1-1.9-1.9
		c-0.5-1.7,1-3.1,2.8-2.6c3.9,1.2,7.8,2.5,11.6,3.8c1.3,0.5,1.7,1.6,1.4,2.9C53,41,52.1,41.4,50.8,41.4z"/>
	<path class="st0" d="M46.5,52.1c-0.2,0-0.6-0.1-1-0.2c-3.6-1.2-7.1-2.3-10.7-3.6c-1.7-0.6-2.2-1.8-1.7-3.2c0.4-1.2,1.6-1.7,3.2-1.2
		c3.6,1.2,7.3,2.3,10.8,3.6c0.8,0.3,1.6,1.2,1.8,2C49.3,50.9,48.2,52.1,46.5,52.1z"/>
	<path class="st0" d="M55.5,30c-4.1-1.2-8.2-2.3-12.3-3.6c-1.2-0.4-1.5-1.5-1.2-2.7c0.3-1.2,1.2-1.9,2.4-1.6c4.1,1,8.1,2.2,12.2,3.4
		c1.1,0.3,1.7,1.3,1.4,2.5C57.7,29.3,56.9,29.9,55.5,30z"/>
	<path class="st0" d="M36.3,24.2c-1.5,0-2.6-1-2.6-2.4c0-1.3,1.1-2.3,2.4-2.3c1.6,0,2.6,0.9,2.6,2.4C38.6,23.4,37.7,24.2,36.3,24.2z
		"/>
	<path class="st0" d="M34.6,33.1c0,1.3-1.1,2.3-2.6,2.2c-1.4-0.1-2.5-1.1-2.4-2.4c0.1-1.3,1.1-2.3,2.4-2.2
		C33.4,30.6,34.6,31.8,34.6,33.1z"/>
	<path class="st0" d="M30.3,43.2c0,1.3-1.2,2.3-2.6,2.2c-1.5-0.1-2.4-0.9-2.4-2.4c0-1.3,1-2.3,2.3-2.3C29.1,40.7,30.4,42,30.3,43.2z
		"/>
</g>
</svg>
