<?xml version="1.0" encoding="utf-8"?>
<!-- Generator: Adobe Illustrator 21.1.0, SVG Export Plug-In . SVG Version: 6.00 Build 0)  -->
<svg version="1.1" id="Layer_1" xmlns="http://www.w3.org/2000/svg" xmlns:xlink="http://www.w3.org/1999/xlink" x="0px" y="0px"
	 viewBox="0 0 96 96" style="enable-background:new 0 0 96 96;" xml:space="preserve">
<style type="text/css">
	.st0{fill-rule:evenodd;clip-rule:evenodd;fill:#4CB024;}
</style>
<path class="st0" d="M13.8,22.2c22.9,0,45.6,0,68.4,0c0,17.2,0,34.3,0,51.6c-22.8,0-45.5,0-68.4,0C13.8,56.6,13.8,39.5,13.8,22.2z
	 M22.1,27c0.5,0.6,0.7,0.8,1,1.1c7.4,7.5,14.7,15,22.1,22.4c2.3,2.3,3.7,2.3,6,0c7.4-7.4,14.7-14.8,22.1-22.2
	c0.3-0.3,0.6-0.7,1.1-1.3C56.8,27,39.6,27,22.1,27z M57,51.5c-2.7,2.6-4.8,5.5-8.9,5.5c-4.1,0-6.3-3-8.9-5.6
	C33.4,57.3,27.8,63,22,69.1c17.6,0,34.6,0,52.1,0C68.2,63.1,62.7,57.4,57,51.5z M36,48c-6-5.9-11.7-11.4-17.4-17
	c0,11.3,0,22.7,0,33.2C24.1,59.1,30,53.6,36,48z M77.5,31.7C72,37.1,66.3,42.6,60.3,48.4c5.9,5.5,11.6,10.9,17.3,16.2
	C77.5,53.8,77.5,42.6,77.5,31.7z"/>
</svg>
