<?xml version="1.0" encoding="utf-8"?>
<!-- Generator: Adobe Illustrator 21.1.0, SVG Export Plug-In . SVG Version: 6.00 Build 0)  -->
<svg version="1.1" id="Layer_1" xmlns="http://www.w3.org/2000/svg" xmlns:xlink="http://www.w3.org/1999/xlink" x="0px" y="0px"
	 viewBox="0 0 78 78" style="enable-background:new 0 0 78 78;" xml:space="preserve">
<style type="text/css">
	.st0{fill:#FFFFFF;}
</style>
<g>
	<path class="st0" d="M56.8,27.9c1.4,0.1,2.5,0.1,3.6,0.3c4.2,0.9,6.9,4.3,7,8.5c0.1,8.7,0.1,17.5,0,26.2c0,5-3.8,8.8-8.8,8.8
		c-13,0.1-26,0.1-39.1,0c-5.5,0-9-3.9-9-9.4c0-8.4,0-16.7,0-25c0-4.8,2.7-8.3,7.1-9.2c1.2-0.2,2.5-0.2,3.8-0.3
		c0.2-2.5,0.2-5,0.6-7.4c1.4-8.6,8-14.2,16.6-14.5c8.5-0.3,15.6,5.1,17.6,13.3c0.4,1.7,0.4,3.5,0.5,5.3
		C56.9,25.8,56.8,26.8,56.8,27.9z M38.9,67.2c6.3,0,12.6,0,18.9,0c3.3,0,4.9-1.6,4.9-4.9c0-8.3,0-16.6,0-24.9c0-3-1.6-4.7-4.6-4.7
		c-12.8,0-25.6,0-38.5,0c-2.8,0-4.4,1.7-4.4,4.5c0,8.4,0,16.8,0,25.2c0,3.3,1.6,4.8,4.8,4.8C26.4,67.2,32.6,67.2,38.9,67.2z
		 M26.4,28c8.4,0,16.7,0,24.9,0c0.3,0,0.9-0.6,0.9-0.9c0-1.8,0.1-3.6-0.2-5.3c-0.8-5.3-3.8-8.9-9-10.4c-5.1-1.4-9.7-0.3-13.4,3.8
		C26.3,18.8,26.2,23.3,26.4,28z"/>
	<path class="st0" d="M36.7,53.3c0-0.7-0.1-1.5,0-2.2c0.1-1-0.2-1.7-1-2.5c-1.7-1.7-1.6-4.7,0.1-6.3c1.7-1.6,4.5-1.6,6.2,0
		c1.8,1.7,1.9,4.6,0.2,6.3c-0.8,0.8-1,1.6-1,2.6c0,1.7,0,3.4,0,5.1c0,1.5-1,2.6-2.4,2.5c-1.3,0-2.2-1-2.2-2.5
		C36.7,55.3,36.7,54.3,36.7,53.3C36.7,53.3,36.7,53.3,36.7,53.3z"/>
</g>
</svg>
