<?xml version="1.0" encoding="utf-8"?>
<!-- Generator: Adobe Illustrator 21.1.0, SVG Export Plug-In . SVG Version: 6.00 Build 0)  -->
<svg version="1.1" id="Layer_1" xmlns="http://www.w3.org/2000/svg" xmlns:xlink="http://www.w3.org/1999/xlink" x="0px" y="0px"
	 viewBox="0 0 96 96" style="enable-background:new 0 0 96 96;" xml:space="preserve">
<style type="text/css">
	.st0{fill-rule:evenodd;clip-rule:evenodd;fill:#4CB024;}
</style>
<g>
	<path class="st0" d="M51.6,6.6c3.1,0.1,4.5,1.6,5.4,3.9c3.7,9.4,7.5,18.7,11.3,28.1c4,9.9,8,19.8,12,29.7c1.8,4.6,0.9,6.7-3.8,8.6
		c-9.6,3.8-19.1,7.7-28.7,11.5c-4.2,1.7-6.5,0.7-8.2-3.4c-7.7-19.3-15.5-38.5-23.2-57.8c-1.6-4.1-0.7-6.4,3.4-8.1
		c9.8-4,19.7-7.9,29.5-11.9C50.2,6.9,51.1,6.7,51.6,6.6z M51.2,15.5c-1.2,0.4-1.9,0.7-2.6,1c-6.5,2.6-13,5.2-19.5,7.8
		c-6.9,2.8-5.9,1.7-3.4,7.9C31.1,45.8,36.6,59.4,42,73.1c0.6,1.6,1.4,2.3,3.2,1.5c7.9-3.2,15.8-6.4,23.7-9.5
		c1.8-0.7,2.2-1.6,1.4-3.5c-2.6-6.2-5.1-12.4-7.5-18.6c-3.4-8.4-6.7-16.8-10.1-25.1C52.4,17,51.7,16.2,51.2,15.5z M63.1,76.9
		c0-1.7-1.4-3.2-3.1-3.2c-1.8-0.1-3.2,1.2-3.3,3c-0.1,1.9,1.3,3.3,3.1,3.3C61.6,80,63.1,78.6,63.1,76.9z"/>
	<path class="st0" d="M19.4,6.1c0.3,0.3,1.4,1,1.3,1.6c-0.1,0.7-1,1.7-1.7,1.8c-4.6,0.8-8.4,2.8-11.3,6.5c-2.5,3.3-3.6,7-3.5,11.2
		c0,0.8-1,1.6-1.6,2.5c-0.6-0.7-1.7-1.4-1.8-2.2C0.1,16.6,8.3,7.2,19.4,6.1z"/>
	<path class="st0" d="M95.2,70.5c-0.7,9.6-6.4,16.9-14.4,19.1c-1.3,0.4-2.6,0.6-2.9-1c-0.1-0.6,1-1.9,1.8-2.2
		c8.7-3.2,13-10.2,11.6-19.4c-0.2-1.2-0.2-2.6,1.3-2.6c0.7,0,1.8,1.1,2.1,2C95.2,67.9,95.1,69.6,95.2,70.5z"/>
	<path class="st0" d="M84.5,69.5c0-0.1,0-0.2,0-0.2c0.1-1.3-0.8-3.3,1.3-3.5c2.3-0.2,2.1,2.1,2.2,3.5c0.6,5.9-3.7,12.2-9.5,13.7
		c-0.8,0.2-2.3-0.2-2.6-0.8c-0.7-1.2,0.3-2,1.5-2.5C82.5,77.6,84.7,74.5,84.5,69.5z"/>
	<path class="st0" d="M7.9,25.9c0.1-6.3,5-11.9,11.3-12.8c1.2-0.2,2.6-0.1,2.6,1.3c0,0.7-1.2,1.8-2,2.1c-5.5,1.6-8.1,4.6-8.4,10.2
		c-0.1,1.2-0.1,2.5-1.6,2.5c-1.6,0-1.8-1.3-1.8-2.6C7.9,26.4,7.9,26.1,7.9,25.9z"/>
</g>
</svg>
