<?xml version="1.0" encoding="utf-8"?>
<!-- Generator: Adobe Illustrator 21.1.0, SVG Export Plug-In . SVG Version: 6.00 Build 0)  -->
<svg version="1.1" id="Layer_1" xmlns="http://www.w3.org/2000/svg" xmlns:xlink="http://www.w3.org/1999/xlink" x="0px" y="0px"
	 viewBox="0 0 348 348" style="enable-background:new 0 0 348 348;" xml:space="preserve">
<style type="text/css">
	.st0{fill:#4CB024;}
	.st1{opacity:0.38;}
	.st2{fill:#FFFFFF;}
	.st3{fill:none;stroke:#FFFFFF;stroke-width:15;stroke-miterlimit:10;}
	.st4{fill:#F6921E;}
	.st5{font-family:'SFCompactDisplay-Thin';}
	.st6{font-size:67.3107px;}
</style>
<g>
	<circle class="st0" cx="174" cy="165.2" r="153.8"/>
	<g class="st1">
		<path class="st2" d="M202.1,246.2l-9.9,0l-8.1,0l-15.6-0.1l-19.3,0.1c-5.5,0-11,0-16.6-0.2c-15-0.3-25.4-10.1-26.5-25
			c-0.5-6.8,0.1-13.6,0.6-18.7c1.3-11.7,4.4-20.7,9.8-28.3c5.7-7.9,13.6-12.4,23.1-12.9c0,0,0.1,0,0.1,0c3.8,0,6.5,1.2,7.9,1.9
			c2,1,4,2.2,6,3.3c2.7,1.6,5.3,3.1,8.2,4.3c10.4,4.4,20.6,3.3,31.8-3.4c1.5-0.9,2.3-1.3,3-1.9c6.8-5.8,17-4.1,22.2-1.9
			c8,3.4,13.8,9.8,17.7,19.4c5,12.4,6.8,25.9,5.3,40.2c-1.2,12.7-12.1,22.2-25.8,22.8C211.4,246.1,206.7,246.2,202.1,246.2z"/>
		<path class="st2" d="M174.1,163.5L174.1,163.5c-10.7,0-20.8-4.1-28.2-11.6c-7.5-7.5-11.6-17.6-11.6-28.3
			c0-22.2,17.5-39.6,39.7-39.6c10.8,0,20.8,4.1,28.2,11.6c7.5,7.5,11.6,17.5,11.6,28.2C213.8,145.7,195.9,163.5,174.1,163.5z"/>
	</g>
	<circle class="st3" cx="254.9" cy="299" r="37.6"/>
	<circle class="st0" cx="254.9" cy="299" r="37.6"/>
	<circle class="st4" cx="254.9" cy="299" r="37.6"/>
	<text transform="matrix(1 0 0 1 237.4628 317.6123)" class="st2 st5 st6">+</text>
</g>
</svg>
