<?xml version="1.0" encoding="utf-8"?>
<!-- Generator: Adobe Illustrator 21.1.0, SVG Export Plug-In . SVG Version: 6.00 Build 0)  -->
<svg version="1.1" id="Layer_1" xmlns="http://www.w3.org/2000/svg" xmlns:xlink="http://www.w3.org/1999/xlink" x="0px" y="0px"
	 viewBox="0 0 78 78" style="enable-background:new 0 0 78 78;" xml:space="preserve">
<style type="text/css">
	.st0{fill-rule:evenodd;clip-rule:evenodd;fill:#4CB024;}
</style>
<g>
	<path class="st0" d="M37.1,72.5c-0.7-2.2-1.8-3.9-3.9-4.6c-2.9-1-5.9,0.6-7,3.7c-0.2,0.7-0.5,1-1.2,0.8c-2.9-0.8-5.5-2-8-3.5
		c1.7-3.5,1.5-5.6-0.5-7.6c-1.9-1.9-4.2-2-7.4-0.4c-1.6-2.5-2.7-5.1-3.4-8c-0.1-0.2,0.5-0.8,0.9-0.9c2.2-1,3.6-2.5,3.6-5
		c0.1-2.4-1.2-4.3-3.4-5.3c-0.4-0.2-0.8-0.3-1.3-0.5c0.6-3,1.8-5.8,3.5-8.5c2.6,1.7,5.1,1.8,7.4-0.3c2.4-2.3,2.2-5,0.3-8
		c3.1-1.3,6-2.5,9-3.8c1.1,3.2,2.8,5.3,6.2,5c2.9-0.2,4.4-2,5.2-5c3.1,1.3,6,2.5,9.1,3.8c-1.8,3-1.9,5.5,0.4,7.8c2,1.9,4,2,7.5,0.4
		c1.1,2.7,2.3,5.4,3.5,8.2c-3.4,0.9-5.4,2.8-5.2,6.2c0.2,3,2.2,4.5,5.3,5.2c-1.2,3-2.4,5.9-3.6,8.9c-3.1-1.8-5.8-2-8.2,0.7
		c-1.8,2-1.7,4.4,0,7.2C43.2,70.5,40.3,71.9,37.1,72.5z M40.3,46.3c0-4.8-3.9-8.8-8.7-8.8c-4.6,0-8.7,4-8.7,8.6
		c0,4.9,3.8,8.9,8.6,8.9C36.3,55,40.3,51.1,40.3,46.3z"/>
	<path class="st0" d="M67.4,29.2c-0.6-0.4-0.9-0.7-1.4-1c-1.7-1-3.8,0.1-3.9,2c-0.1,1.2-0.6,1.5-1.6,1.5c-1,0-2.1,0-3.2,0
		c-0.1-1.6-0.4-2.9-2-3.4c-1.5-0.5-2.4,0.4-3.4,1.4c-1.1-1-2.2-2-3.3-3c0.3-0.4,0.5-0.8,0.7-1.1c1.2-1.8,0.2-4-2-4.2
		c-0.9-0.1-1.3-0.4-1.3-1.3c0-0.8-0.1-1.7-0.1-2.5c0-0.2,0.1-0.4,0.2-0.7c1.5-0.1,2.8-0.6,3.3-2.1c0.5-1.5-0.4-2.4-1.5-3.4
		c1-1.2,2.1-2.3,3.1-3.5c2.7,2,5.2,1.5,5.6-2.5c1.5,0,3,0,4.6,0c0,1.5,0.5,2.7,2,3.2c1.4,0.5,2.4-0.2,3.4-1.3
		c1.1,0.9,2.1,1.9,3.2,2.8c-1.1,1.2-1.8,2.4-1.1,3.8c0.7,1.4,1.9,1.7,3.6,1.5c0.1,1.6,0.2,3,0.3,4.5c-4,1-4.7,2.9-2,5.7
		C69.4,26.9,68.4,28,67.4,29.2z M63.4,18.3c0-2.4-2-4.3-4.4-4.3c-2.3,0-4.3,2.1-4.3,4.5c0,2.3,2,4.2,4.5,4.2
		C61.6,22.6,63.5,20.7,63.4,18.3z"/>
</g>
</svg>
