<?xml version="1.0" encoding="utf-8"?>
<!-- Generator: Adobe Illustrator 21.1.0, SVG Export Plug-In . SVG Version: 6.00 Build 0)  -->
<svg version="1.1" id="Layer_1" xmlns="http://www.w3.org/2000/svg" xmlns:xlink="http://www.w3.org/1999/xlink" x="0px" y="0px"
	 viewBox="0 0 78 78" style="enable-background:new 0 0 78 78;" xml:space="preserve">
<style type="text/css">
	.st0{fill:#FFFFFF;}
</style>
<path class="st0" d="M39,8.7C22.3,8.7,8.7,22.3,8.7,39c0,16.7,13.5,30.3,30.3,30.3c16.7,0,30.3-13.5,30.3-30.3
	C69.3,22.3,55.7,8.7,39,8.7z M41,60.3c-0.2,0.3-0.4,0.6-0.6,0.9c-0.3,0.3-0.6,0.5-0.9,0.6c-0.3,0.1-0.7,0.2-1.1,0.2
	c-0.4,0-0.7-0.1-1.1-0.2c-0.3-0.1-0.6-0.3-0.9-0.6c-0.3-0.3-0.5-0.6-0.6-0.9c-0.2-0.3-0.2-0.7-0.2-1.1c0-0.4,0.1-0.8,0.2-1.1
	c0.1-0.3,0.3-0.6,0.6-0.9c0.3-0.2,0.6-0.4,0.9-0.6c0.3-0.1,0.7-0.2,1.1-0.2c0.4,0,0.7,0.1,1.1,0.2c0.3,0.1,0.7,0.3,0.9,0.6
	c0.3,0.3,0.5,0.6,0.6,0.9c0.2,0.3,0.2,0.7,0.2,1.1C41.3,59.6,41.2,60,41,60.3z M49.3,30.7c-0.3,0.9-0.7,1.8-1.2,2.6
	c-0.5,0.8-1.1,1.5-1.7,2.2c-0.6,0.7-1.3,1.4-2,2c-0.8,0.8-1.6,1.5-2.2,2.2c-0.6,0.6-1.2,1.3-1.6,1.8c-0.4,0.6-0.8,1.2-1,1.8
	c-0.2,0.6-0.3,1.3-0.3,2c0,0.9,0.1,1.7,0.3,2.5c0.2,0.7,0.4,1.4,0.6,1.9h-3.6c-0.2-0.5-0.4-1.2-0.5-2c-0.1-0.8-0.2-1.6-0.2-2.4
	c0-1,0.2-1.9,0.5-2.7c0.3-0.8,0.7-1.6,1.2-2.3c0.5-0.7,1.1-1.4,1.8-2.1c0.7-0.7,1.4-1.4,2.1-2c0.6-0.6,1.2-1.1,1.7-1.7
	c0.5-0.6,1-1.2,1.4-1.8c0.4-0.7,0.7-1.3,1-2.1c0.3-0.7,0.4-1.5,0.4-2.4c0-1-0.2-1.9-0.5-2.7c-0.4-0.8-0.9-1.5-1.5-2
	c-0.6-0.5-1.4-1-2.3-1.2c-0.9-0.3-1.8-0.4-2.8-0.4c-1.8,0-3.4,0.3-4.9,1c-1.5,0.6-2.9,1.6-4.2,2.8v-4.2c1.5-1,3-1.8,4.5-2.2
	c1.5-0.5,3.2-0.7,4.9-0.7c1.5,0,2.9,0.2,4.2,0.6c1.3,0.4,2.4,1,3.4,1.8c0.9,0.8,1.7,1.8,2.2,2.9c0.6,1.2,0.8,2.5,0.8,4
	C49.8,28.8,49.6,29.8,49.3,30.7z"/>
</svg>
