<?xml version="1.0" encoding="utf-8"?>
<!-- Generator: Adobe Illustrator 21.1.0, SVG Export Plug-In . SVG Version: 6.00 Build 0)  -->
<svg version="1.1" id="Layer_1" xmlns="http://www.w3.org/2000/svg" xmlns:xlink="http://www.w3.org/1999/xlink" x="0px" y="0px"
	 viewBox="0 0 178 178" style="enable-background:new 0 0 178 178;" xml:space="preserve">
<style type="text/css">
	.st0{fill-rule:evenodd;clip-rule:evenodd;fill:#FFFFFF;}
</style>
<g>
	<g>
		<path class="st0" d="M16.6,117c0.2-1.6,0.2-3.3,0.6-4.9c0.2-1.1,0-2-0.6-3C12.7,103,9.1,96.8,6.1,90.2C3.7,85.1,1.5,80,0.6,74.3
			c-0.3-2.1-0.3-4.4-0.1-6.5c0.3-2.7,1.7-5,3.9-6.6c0.1-0.1,0.2-0.3,0.3-0.4c0.5-0.3,1-0.5,1.5-0.8c2.7-0.9,5.5-1.1,8.4-0.8
			c3.8,0.5,7.4,1.5,11,2.9c0.3,0.1,0.7,0.3,1.1,0.4c0.2-1.1,0.4-2.1,0.6-3c0.7-3.6,3.4-5.4,7-4.7c4.1,0.8,8.3,1.6,12.4,2.4
			c0.7,0.1,1.3,0,1.9-0.3c5.5-3.2,11-6.1,17.1-8c3.4-1.1,6.8-1.9,10.4-1.4c4,0.6,6.8,2.7,8.1,6.6c0.9,2.8,0.9,5.6,0.4,8.4
			c-0.2,1.4-0.2,2.3,1,3.3c1.5,1.2,1.8,3,1.5,4.9c-1.8,9.4-3.7,18.9-5.5,28.3c-0.4,2-0.7,3.9-1.1,6.1c4.3-2.9,8.3-5.6,12.4-8.4
			c7.4-5,14.9-10,22.3-15c0.7-0.5,1-1,1.2-1.8c1-4.5,3.4-8,7.3-10.5c0.8-0.6,1.7-0.7,2.6-0.1c0.9,0.5,1.3,1.3,1.2,2.3
			c-0.6,7.6-1.3,15.3-1.9,22.9c-0.1,1-0.6,1.8-1.6,2.1c-1,0.3-1.8,0.2-2.5-0.6c-0.8-0.9-1.6-1.7-2.3-2.6c-0.9-1.3-1.5-2.8-2.3-4.3
			c-0.2,0.2-0.4,0.3-0.6,0.5c-3.5,3.2-7,6.5-10.4,9.7c-9.6,8.9-19.1,17.8-28.7,26.8c-0.4,0.3-0.8,0.7-1.1,1.1
			c-2.2,3.2-3.6,3.8-7.2,3.1c-15.3-3-30.7-6-46-8.9c-1.8-0.3-3.5-0.7-4.9-1.9C17.5,118.7,17,117.8,16.6,117z M12.3,66
			c-4-0.2-5.4,1.3-5.1,5.3c0.2,3.6,1.3,6.9,2.6,10.2c2.5,6.3,5.7,12.3,9.1,18.2c0.1,0.2,0.2,0.3,0.5,0.7c2-10.4,4-20.6,6-30.8
			C21.1,67.8,16.9,66.2,12.3,66z M79.7,56.7c-0.5-2.7-2-4-4.8-4.2c-2.4-0.2-4.8,0.3-7.1,1c-4.3,1.3-8.2,3.2-12.2,5.5
			c7.9,1.5,15.7,3.1,23.7,4.6C79.8,61.2,80.1,59,79.7,56.7z"/>
		<path class="st0" d="M169.1,89c1.3,1.8,2.6,3.6,4,5.3c0.7,0.9,1.8,1.1,2.9,0.7c1-0.4,1.6-1.1,1.6-2.1c0.1-1.2-0.4-2.2-1.5-2.5
			c-2.2-0.7-4.5-1.2-6.8-1.7C169.2,88.7,169.2,88.8,169.1,89z"/>
		<path class="st0" d="M134,74.4c1.9,1.4,3.8,2.8,5.7,4c0.9,0.6,1.9,0.3,2.8-0.4c0.8-0.7,1.1-1.6,0.8-2.6c-0.3-1.1-1.1-1.8-2.2-1.9
			c-1.2-0.1-2.5,0-3.7,0.1c-1.1,0.1-2.2,0.3-3.3,0.5C134.1,74.2,134,74.3,134,74.4z"/>
		<path class="st0" d="M146.2,78.1c1.7,1.5,3.4,3.1,5.2,4.5c0.9,0.7,2,0.5,2.9-0.1c0.9-0.6,1.2-1.5,1-2.5c-0.2-1.1-0.9-1.9-2-2
			c-2.3-0.2-4.6-0.2-6.9-0.3C146.3,77.8,146.2,78,146.2,78.1z"/>
		<path class="st0" d="M157.9,83c1.4,1.6,2.9,3.2,4.4,4.7c0.9,0.9,2.1,1,3.1,0.5c0.9-0.5,1.5-1.4,1.4-2.4c-0.1-1.1-0.8-2-2.1-2.4
			c-0.9-0.2-1.9-0.4-2.8-0.5c-1.3-0.1-2.5-0.2-3.8-0.3C158,82.8,158,82.9,157.9,83z"/>
		<path class="st0" d="M132.2,93.8c1.6,1,3.3,2.1,4.9,3.1c1,0.6,2.1,0.5,2.9-0.3c0.8-0.7,1.1-1.9,0.7-2.9c-0.4-1-1.3-1.6-2.5-1.5
			c-2,0.3-4.1,0.8-6.1,1.2C132.2,93.5,132.2,93.6,132.2,93.8z"/>
		<path class="st0" d="M143.6,96.3c1.5,1.4,3,2.9,4.6,4.3c0.8,0.7,1.8,0.6,2.6,0c0.9-0.6,1.4-1.5,1.2-2.6c-0.1-1-0.9-1.9-1.9-2
			c-2.1-0.1-4.3-0.1-6.4-0.1C143.6,96,143.6,96.1,143.6,96.3z"/>
		<path class="st0" d="M154.2,91.3c1.2,1.5,2.4,3,3.7,4.4c0.8,0.9,1.8,1,2.8,0.5c1-0.5,1.6-1.6,1.5-2.7c-0.1-1.1-0.8-1.9-2-2.1
			c-2-0.3-3.9-0.4-5.9-0.6C154.3,91.1,154.3,91.2,154.2,91.3z"/>
		<path class="st0" d="M132.6,84.2c1.6,1.1,3.1,2.3,4.7,3.4c0.9,0.6,1.9,0.5,2.8-0.2c0.9-0.7,1.2-1.9,0.8-3c-0.4-1-1.2-1.6-2.3-1.5
			c-2,0.2-4,0.6-5.9,0.9C132.7,84,132.7,84.1,132.6,84.2z"/>
		<path class="st0" d="M143.4,86.9c1.7,1.6,3.2,3,4.7,4.3c0.8,0.7,1.7,0.5,2.6-0.1c0.9-0.6,1.3-1.5,1.2-2.7c-0.2-1-0.7-1.7-1.7-1.9
			C148,86.2,145.9,86.6,143.4,86.9z"/>
	</g>
</g>
</svg>
