<?xml version="1.0" encoding="utf-8"?>
<!-- Generator: Adobe Illustrator 21.1.0, SVG Export Plug-In . SVG Version: 6.00 Build 0)  -->
<svg version="1.1" id="Layer_1" xmlns="http://www.w3.org/2000/svg" xmlns:xlink="http://www.w3.org/1999/xlink" x="0px" y="0px"
	 viewBox="0 0 78 78" style="enable-background:new 0 0 78 78;" xml:space="preserve">
<style type="text/css">
	.st0{fill:#FFFFFF;}
</style>
<g>
	<path class="st0" d="M52,76.7l-4.6,0l-3.8,0l-7.2,0l-9,0c-2.6,0-5.1,0-7.7-0.1c-7-0.2-11.8-4.7-12.3-11.6c-0.2-3.1,0-6.3,0.3-8.7
		c0.6-5.4,2-9.6,4.5-13.1c2.6-3.7,6.3-5.8,10.7-6c0,0,0,0,0,0c1.7,0,3,0.6,3.7,0.9c0.9,0.5,1.9,1,2.8,1.6c1.2,0.7,2.5,1.5,3.8,2
		c4.8,2,9.6,1.5,14.8-1.6c0.7-0.4,1.1-0.6,1.4-0.9c3.1-2.7,7.9-1.9,10.3-0.9c3.7,1.6,6.4,4.5,8.2,9c2.3,5.8,3.1,12.1,2.5,18.7
		c-0.6,5.9-5.6,10.3-12,10.6C56.3,76.7,54.2,76.7,52,76.7z M47.4,71.5l4.6,0c2.1,0,4.2,0,6.3-0.1c3.8-0.1,6.7-2.6,7-5.9
		c0.6-5.8-0.1-11.3-2.1-16.3c-1.3-3.2-3-5.2-5.4-6.2c-2.5-1-3.6-1.1-4.9,0c-0.6,0.5-1.2,0.9-1.9,1.3c-7.1,4.2-13.5,4.7-19.7,2
		c-1.5-0.6-3-1.5-4.4-2.3c-0.8-0.5-1.7-1-2.5-1.4c-0.4-0.2-0.8-0.3-1.1-0.3c-2.9,0.1-5.1,1.4-6.8,3.8c-2,2.8-3.1,6.2-3.6,10.7
		c-0.2,2.2-0.5,5-0.3,7.7c0.3,4.2,3,6.7,7.3,6.8c2.5,0.1,5.1,0.1,7.6,0.1l14.1,0v0.1L47.4,71.5z"/>
	<path class="st0" d="M39,38.3L39,38.3c-5,0-9.6-1.9-13.1-5.4c-3.5-3.5-5.4-8.2-5.4-13.1c0-10.3,8.1-18.4,18.5-18.4
		c5,0,9.7,1.9,13.1,5.4c3.5,3.5,5.4,8.1,5.4,13.1C57.4,30,49.2,38.2,39,38.3z M39,6.5c-7.5,0-13.3,5.8-13.3,13.3
		c0,3.6,1.4,7,3.9,9.5c2.5,2.5,5.8,3.9,9.4,3.9v2.6l0-2.6c7.4,0,13.3-5.8,13.3-13.3c0-3.6-1.4-7-3.9-9.5C45.9,7.9,42.6,6.5,39,6.5z"
		/>
</g>
</svg>
