<?xml version="1.0" ?><svg baseProfile="tiny" id="Layer_1" version="1.2" viewBox="0 0 512 512" xml:space="preserve" xmlns="http://www.w3.org/2000/svg" xmlns:xlink="http://www.w3.org/1999/xlink"><g id="XMLID_1630_"><circle cx="256" cy="256" fill="#8ABE4F" id="XMLID_2766_" r="256"/><g id="XMLID_25_"><rect fill="#FFFFFF" height="10.9" id="XMLID_251_" width="258.4" x="126.8" y="405.1"/><g id="XMLID_26_"><rect fill="#FFFFFF" height="43.5" id="XMLID_250_" width="29.1" x="328.8" y="224.2"/><rect fill="#FFFFFF" height="42.9" id="XMLID_249_" width="30.3" x="205.6" y="270.9"/><rect fill="#FFFFFF" height="42.9" id="XMLID_248_" width="30.3" x="239" y="270.9"/><rect fill="#FFFFFF" height="43.5" id="XMLID_246_" width="30.3" x="205.6" y="224.2"/><rect fill="#FFFFFF" height="45.1" id="XMLID_245_" width="31.2" x="205.8" y="111.6"/><rect fill="#FFFFFF" height="45.1" id="XMLID_244_" width="29.4" x="240.3" y="111.6"/><rect fill="#FFFFFF" height="43.5" id="XMLID_213_" width="30.3" x="239" y="224.2"/><rect fill="#FFFFFF" height="41.4" id="XMLID_143_" width="31.2" x="205.8" y="159.9"/><rect fill="#FFFFFF" height="41.4" id="XMLID_113_" width="29.4" x="240.3" y="159.9"/><rect fill="#FFFFFF" height="45.1" id="XMLID_36_" width="29.1" x="328.8" y="111.6"/><rect fill="#FFFFFF" height="45.1" id="XMLID_41_" width="31.6" x="294" y="111.6"/><rect fill="#FFFFFF" height="41.4" id="XMLID_40_" width="29.1" x="328.8" y="159.9"/><rect fill="#FFFFFF" height="41.4" id="XMLID_39_" width="31.6" x="294" y="159.9"/><rect fill="#FFFFFF" height="43.5" id="XMLID_38_" width="31.5" x="294.1" y="224.2"/><rect fill="#FFFFFF" height="42.9" id="XMLID_37_" width="29.1" x="328.8" y="270.9"/><path d="M192.9,96v307h178.7V96H192.9z M200.1,105.9h75.3v50.9l0,0v3.1l0,0V207h-75.3V105.9z      M199.8,218.4h75.3v101.2h-75.3V218.4z M238.5,402.9h-3.1v-63.4h-32.3v63.4H200v-66.4h38.4L238.5,402.9L238.5,402.9z      M279.5,360.3h-25.3v-23.8h25.3V360.3z M310.3,360.3H285v-23.8h25.3V360.3z M288.4,319.6V218.4h75.3v101.2L288.4,319.6     L288.4,319.6z M363.7,402.9h-3.1v-63.4h-32.3v63.4h-3.1v-66.4h38.4L363.7,402.9L363.7,402.9z M364,159.9h-0.4V207h-75.3V105.9     h75.3v50.9h0.4L364,159.9L364,159.9z" fill="#FFFFFF" id="XMLID_27_"/><rect fill="#FFFFFF" height="42.9" id="XMLID_252_" width="31.5" x="294.1" y="270.9"/></g><path d="M141.3,96v306.9h48.3V96H141.3z M169.4,131.1l16.5,0.1l-0.1,22.3l-16.5-0.1L169.4,131.1z     M168.9,161.7l16.5,0.1l-0.1,22.3l-16.5-0.1L168.9,161.7z M185.7,284.4l-0.1,22.3l-16.5-0.1l0.1-22.3L185.7,284.4z M168.4,192.4    l16.5,0.1l-0.1,22.3l-16.5-0.1L168.4,192.4z M168.2,223l16.5,0.1l-0.1,22.3l-16.5-0.1L168.2,223z M146.5,130.5l16.5,0.1l-0.1,22.3    l-16.5-0.1L146.5,130.5z M146,161.2l16.5,0.1l-0.1,22.3l-16.5-0.1L146,161.2z M162.8,283.8l-0.1,22.3l-16.5-0.1l0.1-22.3    L162.8,283.8z M145.5,191.8l16.5,0.1l-0.1,22.3l-16.5-0.1L145.5,191.8z M145.3,222.4l16.5,0.1l-0.1,22.3l-16.5-0.1L145.3,222.4z     M145,253.1l16.5,0.1l-0.1,22.3l-16.5-0.1L145,253.1z M146.1,345l16.5,0.1l-0.1,22.3l-16.5-0.1L146.1,345z M162.8,398.1l-16.5-0.1    l0.1-22.3l16.5,0.1L162.8,398.1z M163.1,336.8l-16.5-0.1l0.1-22.3l16.5,0.1L163.1,336.8z M163.3,122.2l-16.5-0.1l0.1-22.3    l16.5,0.1L163.3,122.2z M167.9,253.6l16.5,0.1l-0.1,22.3l-16.5-0.1L167.9,253.6z M169.1,345.6l16.5,0.1l-0.1,22.3l-16.5-0.1    L169.1,345.6z M185.7,398.7l-16.5-0.1l0.1-22.3l16.5,0.1L185.7,398.7z M186,337.3l-16.5-0.1l0.1-22.3l16.5,0.1L186,337.3z     M186.2,122.8l-16.5-0.1l0.1-22.3l16.5,0.1L186.2,122.8z" fill="#FFFFFF" id="XMLID_253_"/></g></g></svg>